<svg id="Lager_1" data-name="Lager 1" xmlns="http://www.w3.org/2000/svg" viewBox="0 0 292 528"><defs><style>.cls-1,.cls-4{font-size:18px;}.cls-1{font-family:Consolas;}.cls-2,.cls-3,.cls-5,.cls-6{fill:none;}.cls-2,.cls-3,.cls-5{stroke:#000;stroke-width:3px;}.cls-2,.cls-5{stroke-linecap:round;stroke-linejoin:round;}.cls-3{stroke-miterlimit:10;}.cls-4{font-family:Consolas-Italic, Consolas;font-style:italic;}.cls-5{stroke-dasharray:12 12;}</style></defs><text class="cls-1" transform="translate(1.43 85)">open(..., err=101)</text><line class="cls-2" x1="91.5" y1="101.5" x2="91.5" y2="127.96"/><polygon points="90.8 139.14 95.69 128.23 87.31 127.7 90.8 139.14"/><polygon class="cls-3" points="90.8 139.14 95.69 128.23 87.31 127.7 90.8 139.14"/><line class="cls-2" x1="91.5" y1="14.4" x2="91.5" y2="48.63"/><polygon points="90.8 59.81 95.69 48.9 87.31 48.37 90.8 59.81"/><polygon class="cls-3" points="90.8 59.81 95.69 48.9 87.31 48.37 90.8 59.81"/><path d="M94.47,13.17a4.2,4.2,0,1,1,0-5.94,4.2,4.2,0,0,1,0,5.94"/><path class="cls-3" d="M94.47,13.17a4.2,4.2,0,1,1,0-5.94,4.2,4.2,0,0,1,0,5.94"/><text class="cls-1" transform="translate(1.43 164.33)">read(..., err=102)</text><line class="cls-2" x1="91.5" y1="180.83" x2="91.5" y2="207.3"/><polygon points="90.8 218.48 95.69 207.56 87.31 207.03 90.8 218.48"/><polygon class="cls-3" points="90.8 218.48 95.69 207.56 87.31 207.03 90.8 218.48"/><text class="cls-1" transform="translate(1.43 243.67)">close(..., err=103)</text><line class="cls-2" x1="91.5" y1="260.17" x2="91.5" y2="277.32"/><path d="M88.42,278.24a4.2,4.2,0,1,1-.6,5.91,4.2,4.2,0,0,1,.6-5.91"/><path class="cls-3" d="M88.42,278.24a4.2,4.2,0,1,1-.6,5.91,4.2,4.2,0,0,1,.6-5.91"/><text class="cls-4" transform="translate(6.38 348.67)">101 error handler</text><text/><line class="cls-2" x1="91.5" y1="360.83" x2="91.5" y2="374.98"/><path d="M88.42,375.91a4.2,4.2,0,1,1-.6,5.91,4.2,4.2,0,0,1,.6-5.91"/><path class="cls-3" d="M88.42,375.91a4.2,4.2,0,1,1-.6,5.91,4.2,4.2,0,0,1,.6-5.91"/><text class="cls-4" transform="translate(6.38 418)">102 error handler</text><text/><line class="cls-2" x1="91.5" y1="430.17" x2="91.5" y2="444.32"/><path d="M88.42,445.24a4.2,4.2,0,1,1-.6,5.91,4.2,4.2,0,0,1,.6-5.91"/><path class="cls-3" d="M88.42,445.24a4.2,4.2,0,1,1-.6,5.91,4.2,4.2,0,0,1,.6-5.91"/><text class="cls-4" transform="translate(6.38 487.33)">103 error_handler</text><text/><line class="cls-2" x1="91.5" y1="499.5" x2="91.5" y2="513.65"/><path d="M88.42,514.57a4.2,4.2,0,1,1-.6,5.91,4.21,4.21,0,0,1,.6-5.91"/><path class="cls-3" d="M88.42,514.57a4.2,4.2,0,1,1-.6,5.91,4.21,4.21,0,0,1,.6-5.91"/><polyline class="cls-5" points="194.5 78.5 249.5 78.5 249.5 341.5 249.5 344.5 210.4 344.5"/><polygon points="199.2 344.5 210.4 348.7 210.4 340.3 199.2 344.5"/><polygon class="cls-3" points="199.2 344.5 210.4 348.7 210.4 340.3 199.2 344.5"/><polyline class="cls-5" points="194.5 160.5 268.5 160.5 268.5 357.17 268.5 413.5 210.4 413.5"/><polygon points="199.2 413.5 210.4 417.7 210.4 409.3 199.2 413.5"/><polygon class="cls-3" points="199.2 413.5 210.4 417.7 210.4 409.3 199.2 413.5"/><polyline class="cls-5" points="194.5 238.5 288.5 238.5 288.5 454.17 288.5 485.5 210.4 485.5"/><polygon points="199.2 485.5 210.4 489.7 210.4 481.3 199.2 485.5"/><polygon class="cls-3" points="199.2 485.5 210.4 489.7 210.4 481.3 199.2 485.5"/><rect class="cls-6" width="292" height="528"/></svg>