<svg id="Lager_1" data-name="Lager 1" xmlns="http://www.w3.org/2000/svg" viewBox="0 0 316.69 139.67"><defs><style>.cls-1,.cls-4{fill:none;stroke:#000;stroke-linecap:round;stroke-width:0.61px;}.cls-1{stroke-linejoin:round;}.cls-2{fill-rule:evenodd;}.cls-3{fill:#fff;}.cls-4{stroke-miterlimit:10;}</style></defs><line class="cls-1" x1="0.3" y1="58.91" x2="316.38" y2="58.91"/><line class="cls-1" x1="0.3" y1="58.91" x2="0.3" y2="51.23"/><line class="cls-1" x1="52.98" y1="58.91" x2="52.98" y2="51.23"/><line class="cls-1" x1="105.66" y1="58.91" x2="105.66" y2="51.23"/><line class="cls-1" x1="158.34" y1="58.91" x2="158.34" y2="51.23"/><line class="cls-1" x1="211.02" y1="58.91" x2="211.02" y2="51.23"/><line class="cls-1" x1="263.7" y1="58.91" x2="263.7" y2="51.23"/><line class="cls-1" x1="316.38" y1="58.91" x2="316.38" y2="51.23"/><line class="cls-1" x1="0.3" y1="97.07" x2="46.62" y2="97.07"/><polyline class="cls-2" points="46.5 100.43 53.1 97.07 46.5 93.71"/><line class="cls-1" x1="0.3" y1="119.87" x2="129.42" y2="119.87"/><polyline class="cls-2" points="129.3 123.23 135.78 119.87 129.3 116.63"/><path d="M1.12,80.44h6v1.12h-6Zm2.39.69H4.7v7.76H3.51Z" transform="translate(-0.94 -2.62)"/><path d="M10.71,82.73H11.9l-2.07,6H8.65Zm2.85,2.38a1.17,1.17,0,0,0,0-1,.87.87,0,0,0-.81-.34,1.7,1.7,0,0,0-1,.3,1.79,1.79,0,0,0-.61.87l.28-1.16a3.6,3.6,0,0,1,1-.85,2.41,2.41,0,0,1,1.1-.29,1.29,1.29,0,0,1,1.3.64,2.42,2.42,0,0,1-.08,1.82L13.5,88.77H12.31Z" transform="translate(-0.94 -2.62)"/><path d="M61.36,133.84h6V135h-6Zm2.39.69h1.19v7.76H63.75Z" transform="translate(-0.94 -2.62)"/><path d="M71,136.13h1.19l-2.06,6H68.89Zm2.85,2.38a1.17,1.17,0,0,0,0-1,.87.87,0,0,0-.81-.35,1.71,1.71,0,0,0-1,.31,1.79,1.79,0,0,0-.61.87l.28-1.16a3.6,3.6,0,0,1,1-.85,2.41,2.41,0,0,1,1.1-.29,1.29,1.29,0,0,1,1.3.64A2.39,2.39,0,0,1,75,138.5l-1.25,3.67H72.55Z" transform="translate(-0.94 -2.62)"/><path d="M196.84,80.44h6v1.12h-6Zm2.39.69h1.19v7.76h-1.19Z" transform="translate(-0.94 -2.62)"/><path d="M203.6,80.43h1.19v8.46H203.6Zm.52,3.76H207a1.11,1.11,0,0,0,1-.63,1.77,1.77,0,0,0,0-1.38,1.05,1.05,0,0,0-1-.62h-2.88V80.43H207a2.67,2.67,0,0,1,1.29.3,2.2,2.2,0,0,1,.85.86,2.55,2.55,0,0,1,.31,1.28,2.53,2.53,0,0,1-.31,1.28,2.1,2.1,0,0,1-.86.86,2.66,2.66,0,0,1-1.28.3h-2.84Zm2.3.86,1.18-.27,2.16,4.11h-1.4Z" transform="translate(-0.94 -2.62)"/><path d="M213.51,82.73h1.19l-2.07,6h-1.18Zm2.85,2.38a1.17,1.17,0,0,0,0-1,.87.87,0,0,0-.81-.34,1.7,1.7,0,0,0-1,.3,1.79,1.79,0,0,0-.61.87l.27-1.16a3.78,3.78,0,0,1,1-.85,2.41,2.41,0,0,1,1.1-.29,1.29,1.29,0,0,1,1.3.64,2.47,2.47,0,0,1-.08,1.82l-1.26,3.66h-1.18Z" transform="translate(-0.94 -2.62)"/><line class="cls-1" x1="188.46" y1="97.07" x2="234.78" y2="97.07"/><polyline class="cls-2" points="234.66 100.43 241.14 97.07 234.66 93.71"/><rect class="cls-3" x="52.86" y="89.39" width="52.8" height="15.24"/><rect class="cls-4" x="52.86" y="89.39" width="52.8" height="15.24"/><path d="M56.51,102.46A2.09,2.09,0,0,1,56,101V97.67a2.1,2.1,0,0,1,.53-1.52,2.45,2.45,0,0,1,3.07,0,2.08,2.08,0,0,1,.53,1.52V101a2.07,2.07,0,0,1-.53,1.51,2.45,2.45,0,0,1-3.07,0Zm2.33-.7a1.17,1.17,0,0,0,.25-.81V97.67a1.17,1.17,0,0,0-.25-.81,1,1,0,0,0-.79-.28,1,1,0,0,0-.8.28,1.17,1.17,0,0,0-.25.81V101a1.17,1.17,0,0,0,.25.81,1.27,1.27,0,0,0,1.59,0Z" transform="translate(-0.94 -2.62)"/><path d="M61.43,101.86H62.5v1.07H61.43Z" transform="translate(-0.94 -2.62)"/><path d="M65.58,102.93h-1V96.81l-1,.63v-1l1-.69h1Z" transform="translate(-0.94 -2.62)"/><path d="M67,102.05l2.52-3.36a2.57,2.57,0,0,0,.34-.6,1.63,1.63,0,0,0,.12-.58h0a.87.87,0,0,0-.25-.67,1.16,1.16,0,0,0-1.44,0,1.21,1.21,0,0,0-.33.74h-1a2.61,2.61,0,0,1,.37-1.06,1.82,1.82,0,0,1,.71-.67,2.18,2.18,0,0,1,1-.23,2.45,2.45,0,0,1,1.1.22,1.61,1.61,0,0,1,.7.64,2.16,2.16,0,0,1,.23,1h0a2.39,2.39,0,0,1-.15.8,3.77,3.77,0,0,1-.45.8L68.29,102H71v1H67Z" transform="translate(-0.94 -2.62)"/><path d="M73.07,102.78a1.91,1.91,0,0,1-.74-.64,2.29,2.29,0,0,1-.35-1h1a1.07,1.07,0,0,0,.19.5.83.83,0,0,0,.39.3,1.54,1.54,0,0,0,.55.1,1.06,1.06,0,0,0,.78-.27,1,1,0,0,0,.28-.76v-.21a1.24,1.24,0,0,0-.26-.84,1,1,0,0,0-.75-.3h-.51v-1h.51a.9.9,0,0,0,.66-.25,1.05,1.05,0,0,0,.23-.72V97.5a.83.83,0,0,0-.25-.66.93.93,0,0,0-.69-.24,1.16,1.16,0,0,0-.47.1.81.81,0,0,0-.34.3,1.54,1.54,0,0,0-.21.5h-1a2.59,2.59,0,0,1,.37-1,1.79,1.79,0,0,1,.7-.64,2,2,0,0,1,1-.22,2,2,0,0,1,1.44.49,1.84,1.84,0,0,1,.51,1.39v.12a1.52,1.52,0,0,1-.29.94,1.66,1.66,0,0,1-.83.59,1.45,1.45,0,0,1,.92.58,2,2,0,0,1,.32,1.15V101a2.27,2.27,0,0,1-.24,1.08,1.67,1.67,0,0,1-.71.68,2.54,2.54,0,0,1-1.12.23A2.44,2.44,0,0,1,73.07,102.78Z" transform="translate(-0.94 -2.62)"/><path d="M79.36,102.93h-1V96.81l-1,.63v-1l1-.69h1Z" transform="translate(-0.94 -2.62)"/><path d="M80.85,100.94l2.43-5.23h1L82,100.88H85.5v.94H80.85ZM84,98.68h1v4.25H84Z" transform="translate(-0.94 -2.62)"/><path d="M88.44,102.93h-1V96.81l-1,.63v-1l1-.69h1Z" transform="translate(-0.94 -2.62)"/><path d="M89.94,100.94l2.43-5.23h1l-2.36,5.17h3.54v.94H89.94Zm3.12-2.26h1v4.25h-1Z" transform="translate(-0.94 -2.62)"/><rect class="cls-3" x="135.78" y="89.39" width="52.8" height="15.24"/><rect class="cls-4" x="135.78" y="89.39" width="52.8" height="15.24"/><path d="M139.43,102.46a2.08,2.08,0,0,1-.52-1.51V97.67a2.09,2.09,0,0,1,.52-1.52,2.45,2.45,0,0,1,3.07,0,2.08,2.08,0,0,1,.53,1.52V101a2.07,2.07,0,0,1-.53,1.51,2.45,2.45,0,0,1-3.07,0Zm2.33-.7A1.17,1.17,0,0,0,142,101V97.67a1.17,1.17,0,0,0-.25-.81,1,1,0,0,0-.79-.28,1,1,0,0,0-.8.28,1.17,1.17,0,0,0-.25.81V101a1.17,1.17,0,0,0,.25.81,1.27,1.27,0,0,0,1.59,0Z" transform="translate(-0.94 -2.62)"/><path d="M144.35,101.86h1.07v1.07h-1.07Z" transform="translate(-0.94 -2.62)"/><path d="M147.56,102.78a1.84,1.84,0,0,1-.74-.64,2.3,2.3,0,0,1-.36-1h1a1.07,1.07,0,0,0,.19.5.85.85,0,0,0,.38.3,1.6,1.6,0,0,0,.56.1,1.09,1.09,0,0,0,.78-.27,1,1,0,0,0,.28-.76v-.21a1.19,1.19,0,0,0-.27-.84.92.92,0,0,0-.74-.3h-.51v-1h.51a.86.86,0,0,0,.65-.25,1,1,0,0,0,.24-.72V97.5a.83.83,0,0,0-.25-.66,1,1,0,0,0-.7-.24,1.15,1.15,0,0,0-.46.1.81.81,0,0,0-.34.3,1.2,1.2,0,0,0-.21.5h-1a2.59,2.59,0,0,1,.38-1,1.72,1.72,0,0,1,.7-.64,2.32,2.32,0,0,1,2.41.27,1.84,1.84,0,0,1,.51,1.39v.12a1.59,1.59,0,0,1-.29.94,1.71,1.71,0,0,1-.83.59,1.43,1.43,0,0,1,.91.58,1.89,1.89,0,0,1,.33,1.15V101a2.27,2.27,0,0,1-.24,1.08,1.72,1.72,0,0,1-.71.68,2.54,2.54,0,0,1-1.12.23A2.41,2.41,0,0,1,147.56,102.78Z" transform="translate(-0.94 -2.62)"/><path d="M152,100.94l2.42-5.23h1.05l-2.37,5.17h3.54v.94H152Zm3.11-2.26h1v4.25h-1Z" transform="translate(-0.94 -2.62)"/><path d="M159.59,102.93h-1V96.81l-1,.63v-1l1-.69h1Z" transform="translate(-0.94 -2.62)"/><path d="M161.09,100.94l2.42-5.23h1l-2.36,5.17h3.54v.94h-4.64Zm3.11-2.26h1v4.25h-1Z" transform="translate(-0.94 -2.62)"/><rect class="cls-3" x="241.14" y="89.39" width="52.8" height="15.24"/><rect class="cls-4" x="241.14" y="89.39" width="52.8" height="15.24"/><path d="M244.91,102.46a2.09,2.09,0,0,1-.53-1.51V97.67a2.1,2.1,0,0,1,.53-1.52,2.45,2.45,0,0,1,3.07,0,2.08,2.08,0,0,1,.53,1.52V101a2.07,2.07,0,0,1-.53,1.51,2.45,2.45,0,0,1-3.07,0Zm2.33-.7a1.17,1.17,0,0,0,.25-.81V97.67a1.17,1.17,0,0,0-.25-.81,1.27,1.27,0,0,0-1.59,0,1.17,1.17,0,0,0-.25.81V101a1.17,1.17,0,0,0,.25.81,1.27,1.27,0,0,0,1.59,0Z" transform="translate(-0.94 -2.62)"/><path d="M249.71,101.86h1.06v1.07h-1.06Z" transform="translate(-0.94 -2.62)"/><path d="M252.92,102.78a1.77,1.77,0,0,1-.74-.64,2.3,2.3,0,0,1-.36-1h1a1.08,1.08,0,0,0,.2.5.85.85,0,0,0,.38.3,1.56,1.56,0,0,0,.56.1,1.09,1.09,0,0,0,.78-.27A1,1,0,0,0,255,101v-.21a1.19,1.19,0,0,0-.26-.84.92.92,0,0,0-.74-.3h-.52v-1H254a.86.86,0,0,0,.65-.25,1,1,0,0,0,.23-.72V97.5a.86.86,0,0,0-.24-.66,1,1,0,0,0-.7-.24,1.15,1.15,0,0,0-.46.1.83.83,0,0,0-.35.3,1.34,1.34,0,0,0-.2.5h-1a2.59,2.59,0,0,1,.38-1,1.76,1.76,0,0,1,.69-.64,2,2,0,0,1,1-.22,2,2,0,0,1,1.45.49,1.84,1.84,0,0,1,.51,1.39v.12a1.59,1.59,0,0,1-.29.94,1.76,1.76,0,0,1-.83.59,1.43,1.43,0,0,1,.91.58,1.89,1.89,0,0,1,.33,1.15V101a2.16,2.16,0,0,1-.25,1.08,1.64,1.64,0,0,1-.7.68A2.57,2.57,0,0,1,254,103,2.41,2.41,0,0,1,252.92,102.78Z" transform="translate(-0.94 -2.62)"/><path d="M257.36,100.94l2.42-5.23h1l-2.36,5.17H262v.94h-4.64Zm3.11-2.26h1v4.25h-1Z" transform="translate(-0.94 -2.62)"/><path d="M264.25,102.79a1.72,1.72,0,0,1-.69-.62,2.49,2.49,0,0,1-.36-1h1a1,1,0,0,0,.32.62,1.1,1.1,0,0,0,.69.22.92.92,0,0,0,.75-.33,1.39,1.39,0,0,0,.27-.91v-.61a1.37,1.37,0,0,0-.27-.91.92.92,0,0,0-.75-.33,1,1,0,0,0-.51.15,1.4,1.4,0,0,0-.42.42h-.93V95.7H267v1h-2.67v1.62a1.64,1.64,0,0,1,.43-.24,1.5,1.5,0,0,1,.47-.08,2,2,0,0,1,1.07.26A1.6,1.6,0,0,1,267,99a2.89,2.89,0,0,1,.23,1.2v.61A2.72,2.72,0,0,1,267,102a1.7,1.7,0,0,1-.69.76,2.24,2.24,0,0,1-1.1.26A2.13,2.13,0,0,1,264.25,102.79Z" transform="translate(-0.94 -2.62)"/><path d="M269.47,102.74a1.58,1.58,0,0,1-.68-.74,2.67,2.67,0,0,1-.24-1.18h0a3.69,3.69,0,0,1,.1-.84,4.84,4.84,0,0,1,.27-.87L269,99a1,1,0,0,0,.07-.15l1.57-3.11h1.09l-1.84,3.6v-.17a.86.86,0,0,1,.36-.37,1.22,1.22,0,0,1,.56-.13,1.77,1.77,0,0,1,1,.26,1.55,1.55,0,0,1,.61.74,2.9,2.9,0,0,1,.21,1.16h0a2.73,2.73,0,0,1-.24,1.2,1.57,1.57,0,0,1-.69.75,2.17,2.17,0,0,1-1.09.26A2.12,2.12,0,0,1,269.47,102.74Zm1.83-1a1.22,1.22,0,0,0,.27-.85h0a1.44,1.44,0,0,0-.28-.94,1,1,0,0,0-.78-.33.83.83,0,0,0-.7.33,1.59,1.59,0,0,0-.25.94h0a1.22,1.22,0,0,0,.27.85,1.05,1.05,0,0,0,1.47,0Z" transform="translate(-0.94 -2.62)"/><path d="M273.66,100.94l2.42-5.23h1l-2.36,5.17h3.54v.94h-4.64Zm3.11-2.26h1v4.25h-1Z" transform="translate(-0.94 -2.62)"/><path d="M281.25,102.93h-1V96.81l-1,.63v-1l1-.69h1Z" transform="translate(-0.94 -2.62)"/><path d="M282.75,100.94l2.42-5.23h1l-2.36,5.17h3.54v.94h-4.64Zm3.11-2.26h1v4.25h-1Z" transform="translate(-0.94 -2.62)"/><path d="M38.61,5.93h1.23l1.07,4.31,1.51-4.31h.82l1.51,4.31,1.07-4.31h1.24L45.2,12h-.9L42.83,7.8,41.36,12h-.89Z" transform="translate(-0.94 -2.62)"/><path d="M48.2,5.93h1.19v6H48.2Zm2.93,1.14a1.6,1.6,0,0,0-.56-.1,1.18,1.18,0,0,0-.87.32,1.13,1.13,0,0,0-.31.86L49.27,7A2.12,2.12,0,0,1,50,6.15a1.68,1.68,0,0,1,1-.3,2.19,2.19,0,0,1,.75.12,1.56,1.56,0,0,1,.58.35l-.77,1A1.05,1.05,0,0,0,51.13,7.07Z" transform="translate(-0.94 -2.62)"/><path d="M53.22,3.52h1.19V4.7H53.22Zm0,2.41h1.19v6H53.22Z" transform="translate(-0.94 -2.62)"/><path d="M55.79,5.93h2.72V7H55.79Zm1,5.66a1.85,1.85,0,0,1-.33-1.19V4.18H57.6v6.23a.55.55,0,0,0,.09.34.29.29,0,0,0,.25.12h.57V12h-.68A1.34,1.34,0,0,1,56.75,11.59Z" transform="translate(-0.94 -2.62)"/><path d="M61.12,11.74a2.11,2.11,0,0,1-.9-.92,3.19,3.19,0,0,1-.31-1.47V8.67a3.57,3.57,0,0,1,.3-1.53,2.07,2.07,0,0,1,.86-1,2.71,2.71,0,0,1,1.38-.33,2.14,2.14,0,0,1,1.29.38,2.36,2.36,0,0,1,.81,1.09A4.61,4.61,0,0,1,64.83,9v.4H60.77v-1h2.94a2.11,2.11,0,0,0-.38-1.14,1.06,1.06,0,0,0-.88-.41,1.28,1.28,0,0,0-1.05.44A1.92,1.92,0,0,0,61,8.61v.76a1.62,1.62,0,0,0,.4,1.16,1.53,1.53,0,0,0,1.12.4,1.78,1.78,0,0,0,.71-.15,2.06,2.06,0,0,0,.64-.41l.78.78a3.36,3.36,0,0,1-1,.67,2.77,2.77,0,0,1-1.12.23A3,3,0,0,1,61.12,11.74Z" transform="translate(-0.94 -2.62)"/><path d="M67.08,11.27a8.87,8.87,0,0,1-.52-3.07,8.87,8.87,0,0,1,.52-3.07,7.37,7.37,0,0,1,1.55-2.51l.81.73a6.62,6.62,0,0,0-1.31,2.19,7.81,7.81,0,0,0-.44,2.66,7.77,7.77,0,0,0,.44,2.66,6.62,6.62,0,0,0,1.31,2.19l-.81.74A7.51,7.51,0,0,1,67.08,11.27Z" transform="translate(-0.94 -2.62)"/><path d="M69.74,4.84,70,4l2.11.68-.28.89Zm.58,1.77,1.3-1.8.75.55-1.3,1.8Zm1.22-3.75h.92V5.09h-.92Zm.08,2.5.75-.55,1.31,1.8-.75.55Zm.24-.72L74,4l.29.88-2.12.69Z" transform="translate(-0.94 -2.62)"/><path d="M75.27,10.72h1.25v1.89L75.27,13.9Z" transform="translate(-0.94 -2.62)"/><path d="M77.62,3.52h1.24V5.4L77.62,6.69Z" transform="translate(-0.94 -2.62)"/><path d="M80.91,11.27a8.64,8.64,0,0,1-.52-3.07,8.64,8.64,0,0,1,.52-3.07,7.5,7.5,0,0,1,1.54-2.51l.82.73A6.46,6.46,0,0,0,82,5.54a7.58,7.58,0,0,0-.44,2.66A7.54,7.54,0,0,0,82,10.86a6.46,6.46,0,0,0,1.31,2.19l-.82.74A7.64,7.64,0,0,1,80.91,11.27Z" transform="translate(-0.94 -2.62)"/><path d="M83.15,3.52h6V4.64h-6Zm2.39.69h1.18V12H85.54Z" transform="translate(-0.94 -2.62)"/><path d="M98.19,5.81h1.19l-2.06,6H96.13ZM101,8.19a1.17,1.17,0,0,0,0-1,.87.87,0,0,0-.81-.34,1.7,1.7,0,0,0-1,.3,1.79,1.79,0,0,0-.61.87l.28-1.16a3.6,3.6,0,0,1,1-.85,2.41,2.41,0,0,1,1.1-.29,1.29,1.29,0,0,1,1.3.64,2.42,2.42,0,0,1-.08,1.82L101,11.85H99.79Z" transform="translate(-0.94 -2.62)"/><path d="M103,10.72h1.24V12.6L103,13.9Z" transform="translate(-0.94 -2.62)"/><path d="M106.07,3.52h1.19V12h-1.19Zm.58,0h4.85V4.64h-4.85Zm0,3.69h4.21V8.33h-4.21Zm0,3.63h4.85V12h-4.85Z" transform="translate(-0.94 -2.62)"/><path d="M115.89,8.52l.19,1.09-2.3,2.24h-1.31Zm-.17.58-1.1-3.29h1.32l.81,2.71,1.15,3.33h-1.32ZM116.5,8l2-2.14h1.32l-3.25,3.26Z" transform="translate(-0.94 -2.62)"/><path d="M119.33,10.72h1.24V12h-1.24Z" transform="translate(-0.94 -2.62)"/><path d="M125.73,8.52l.19,1.09-2.3,2.24h-1.31Zm-.17.58-1.1-3.29h1.32l.81,2.71,1.15,3.33h-1.32ZM126.34,8l2-2.14h1.32l-3.25,3.26Z" transform="translate(-0.94 -2.62)"/><path d="M129.17,10.72h1.24V12.6l-1.24,1.3Z" transform="translate(-0.94 -2.62)"/><path d="M131.07,3.52h6V4.64h-6Zm2.39.69h1.18V12h-1.18Z" transform="translate(-0.94 -2.62)"/><path d="M141.27,5.81h1.19l-2.07,6h-1.18Zm2.85,2.38a1.17,1.17,0,0,0,0-1,.88.88,0,0,0-.81-.34,1.7,1.7,0,0,0-1,.3,1.79,1.79,0,0,0-.61.87L142,6.87A3.6,3.6,0,0,1,143,6a2.41,2.41,0,0,1,1.1-.29,1.29,1.29,0,0,1,1.3.64,2.42,2.42,0,0,1-.08,1.82l-1.25,3.66h-1.19Z" transform="translate(-0.94 -2.62)"/><path d="M146.21,10.72h1.24V12.6l-1.24,1.3Z" transform="translate(-0.94 -2.62)"/><path d="M149.16,3.52h1.19V12h-1.19Zm.58,0h4.85V4.64h-4.85Zm0,3.69H154V8.33h-4.21Zm0,3.63h4.85V12h-4.85Z" transform="translate(-0.94 -2.62)"/><path d="M159.09,8.52l.19,1.09L157,11.85h-1.31Zm-.17.58-1.1-3.29h1.32L160,8.52l1.15,3.33h-1.32ZM159.7,8l2.05-2.14h1.32l-3.26,3.26Z" transform="translate(-0.94 -2.62)"/><path d="M162.53,10.72h1.24V12h-1.24Z" transform="translate(-0.94 -2.62)"/><path d="M168.93,8.52l.19,1.09-2.3,2.24h-1.31Zm-.17.58-1.1-3.29H169l.81,2.71,1.15,3.33h-1.32ZM169.54,8l2.05-2.14h1.32l-3.26,3.26Z" transform="translate(-0.94 -2.62)"/><path d="M172.37,10.72h1.24V12.6l-1.24,1.3Z" transform="translate(-0.94 -2.62)"/><path d="M174.27,3.52h6V4.64h-6Zm2.39.69h1.18V12h-1.18Z" transform="translate(-0.94 -2.62)"/><path d="M181,3.51h1.18V12H181Zm.52,3.75h2.88a1.05,1.05,0,0,0,1-.62,1.52,1.52,0,0,0,.14-.69,1.52,1.52,0,0,0-.14-.69,1.13,1.13,0,0,0-.4-.46,1.08,1.08,0,0,0-.6-.16h-2.88V3.51h2.83a2.67,2.67,0,0,1,1.29.3,2.1,2.1,0,0,1,.86.86,2.66,2.66,0,0,1,.3,1.28,2.63,2.63,0,0,1-.3,1.28,2.18,2.18,0,0,1-.87.86,2.63,2.63,0,0,1-1.28.3h-2.83Zm2.3.87L185,7.86,187.19,12h-1.41Z" transform="translate(-0.94 -2.62)"/><path d="M191.55,5.81h1.19l-2.07,6h-1.18Zm2.85,2.38a1.17,1.17,0,0,0,0-1,.87.87,0,0,0-.81-.34,1.7,1.7,0,0,0-1,.3A1.79,1.79,0,0,0,192,8l.28-1.16a3.6,3.6,0,0,1,1-.85,2.41,2.41,0,0,1,1.1-.29,1.29,1.29,0,0,1,1.3.64,2.42,2.42,0,0,1-.08,1.82l-1.25,3.66h-1.19Z" transform="translate(-0.94 -2.62)"/><path d="M196.49,10.72h1.24V12.6l-1.24,1.3Z" transform="translate(-0.94 -2.62)"/><path d="M199.44,3.52h1.19V12h-1.19Zm.58,0h4.85V4.64H200Zm0,3.69h4.21V8.33H200Zm0,3.63h4.85V12H200Z" transform="translate(-0.94 -2.62)"/><path d="M209.37,8.52l.19,1.09-2.3,2.24H206Zm-.17.58-1.1-3.29h1.32l.81,2.71,1.15,3.33h-1.32ZM210,8,212,5.81h1.32l-3.26,3.26Z" transform="translate(-0.94 -2.62)"/><path d="M212.81,10.72h1.24V12h-1.24Z" transform="translate(-0.94 -2.62)"/><path d="M219.21,8.52l.19,1.09-2.3,2.24h-1.31ZM219,9.1,218,5.81h1.31l.81,2.71,1.15,3.33H219.9ZM219.82,8l2.05-2.14h1.32l-3.25,3.26Z" transform="translate(-0.94 -2.62)"/><path d="M222,13.05a6.62,6.62,0,0,0,1.31-2.19,7.77,7.77,0,0,0,.44-2.66,7.77,7.77,0,0,0-.44-2.66A6.62,6.62,0,0,0,222,3.35l.81-.73a7.37,7.37,0,0,1,1.55,2.51,8.87,8.87,0,0,1,.51,3.07,8.87,8.87,0,0,1-.51,3.07,7.37,7.37,0,0,1-1.55,2.51Z" transform="translate(-0.94 -2.62)"/><path d="M226.39,3.52h1.25V5.4l-1.25,1.29Z" transform="translate(-0.94 -2.62)"/><path d="M228.13,13.05a6.46,6.46,0,0,0,1.31-2.19,7.77,7.77,0,0,0,.44-2.66,7.77,7.77,0,0,0-.44-2.66,6.46,6.46,0,0,0-1.31-2.19l.81-.73a7.37,7.37,0,0,1,1.55,2.51A8.64,8.64,0,0,1,231,8.2a8.64,8.64,0,0,1-.52,3.07,7.37,7.37,0,0,1-1.55,2.51Z" transform="translate(-0.94 -2.62)"/><path d="M236.38,11.59a1.71,1.71,0,0,1-.55-1.4,1.7,1.7,0,0,1,.5-1.34,2.25,2.25,0,0,1,1.53-.45h1.72l.08.95h-1.79a1,1,0,0,0-.7.21.79.79,0,0,0-.23.63.81.81,0,0,0,.31.68,1.63,1.63,0,0,0,.93.22,2.58,2.58,0,0,0,1-.15.46.46,0,0,0,.33-.45l.13.85a1.65,1.65,0,0,1-.39.4,1.7,1.7,0,0,1-.53.23,2.4,2.4,0,0,1-.68.08A2.54,2.54,0,0,1,236.38,11.59Zm3.14-3.45a1.28,1.28,0,0,0-.31-.92,1.19,1.19,0,0,0-.9-.33,2.45,2.45,0,0,0-.71.11,2.33,2.33,0,0,0-.61.31l-.86-.59a2.08,2.08,0,0,1,.9-.64,3.13,3.13,0,0,1,1.25-.23,3,3,0,0,1,1.28.26,1.78,1.78,0,0,1,.81.77,2.41,2.41,0,0,1,.28,1.21V12h-1.13Z" transform="translate(-0.94 -2.62)"/><path d="M242.24,10.72h1.24V12.6l-1.24,1.3Z" transform="translate(-0.94 -2.62)"/><path d="M248.32,3.52h1.19V12h-1.19ZM250,11.78a1.54,1.54,0,0,1-.61-.76l.08-1.26a1.34,1.34,0,0,0,.14.66,1,1,0,0,0,.4.42,1.29,1.29,0,0,0,.64.14,1.18,1.18,0,0,0,.91-.35,1.44,1.44,0,0,0,.32-1V8.31a1.5,1.5,0,0,0-.32-1,1.15,1.15,0,0,0-.91-.36,1.29,1.29,0,0,0-.64.14.93.93,0,0,0-.4.41,1.29,1.29,0,0,0-.14.64L249.39,7a2.19,2.19,0,0,1,.71-.82,1.75,1.75,0,0,1,1-.28,2,2,0,0,1,1.1.28,1.92,1.92,0,0,1,.69.84,3.36,3.36,0,0,1,.24,1.33V9.62a3.23,3.23,0,0,1-.24,1.31,1.86,1.86,0,0,1-.72.84,2.13,2.13,0,0,1-1.13.28A1.78,1.78,0,0,1,250,11.78Z" transform="translate(-0.94 -2.62)"/><path d="M254.4,10.72h1.25V12.6l-1.25,1.3Z" transform="translate(-0.94 -2.62)"/><path d="M261.51,11.75a2.09,2.09,0,0,1-.89-.9,3,3,0,0,1-.31-1.42v-1a2.9,2.9,0,0,1,.31-1.4,2,2,0,0,1,.89-.89,3.06,3.06,0,0,1,1.41-.3,3.24,3.24,0,0,1,.89.11,2.92,2.92,0,0,1,.74.33,2.14,2.14,0,0,1,.56.52l-.86.77A1.76,1.76,0,0,0,262.94,7a1.44,1.44,0,0,0-1.07.39,1.46,1.46,0,0,0-.37,1.08v1a1.54,1.54,0,0,0,.37,1.11,1.42,1.42,0,0,0,1.07.39,1.65,1.65,0,0,0,.72-.17,1.69,1.69,0,0,0,.59-.48l.86.83a2.27,2.27,0,0,1-.56.51,2.54,2.54,0,0,1-.75.32,3.17,3.17,0,0,1-.88.11A3.06,3.06,0,0,1,261.51,11.75Z" transform="translate(-0.94 -2.62)"/><path d="M77,87.67a2.05,2.05,0,0,1,0-2.74,2.25,2.25,0,0,1,1.53-.45h1.72l.08,1H78.44a1,1,0,0,0-.7.21A.94.94,0,0,0,77.82,87a1.63,1.63,0,0,0,.93.22,2.58,2.58,0,0,0,1-.15.46.46,0,0,0,.33-.45l.13.85a1.65,1.65,0,0,1-.39.4,1.7,1.7,0,0,1-.53.23,2.4,2.4,0,0,1-.68.08A2.56,2.56,0,0,1,77,87.67Zm3.14-3.45a1.28,1.28,0,0,0-.31-.92,1.19,1.19,0,0,0-.9-.33,2.45,2.45,0,0,0-.71.11,2.33,2.33,0,0,0-.61.31l-.86-.59a2.14,2.14,0,0,1,.9-.64,3.13,3.13,0,0,1,1.25-.23,2.81,2.81,0,0,1,1.28.26,1.78,1.78,0,0,1,.81.77,2.41,2.41,0,0,1,.28,1.21v3.88H80.09Z" transform="translate(-0.94 -2.62)"/><path d="M159.09,79.6h1.19v8.45h-1.19Zm1.72,8.26a1.61,1.61,0,0,1-.62-.76l.09-1.26a1.34,1.34,0,0,0,.14.66,1,1,0,0,0,.4.42,1.29,1.29,0,0,0,.64.14,1.18,1.18,0,0,0,.91-.35,1.49,1.49,0,0,0,.32-1V84.39a1.55,1.55,0,0,0-.32-1,1.15,1.15,0,0,0-.91-.36,1.29,1.29,0,0,0-.64.14.91.91,0,0,0-.4.4,1.35,1.35,0,0,0-.14.65L160.15,83a2.13,2.13,0,0,1,.72-.82,1.75,1.75,0,0,1,1-.28,2,2,0,0,1,1.1.28,1.92,1.92,0,0,1,.69.84,3.36,3.36,0,0,1,.24,1.33V85.7a3.06,3.06,0,0,1-.25,1.31,1.84,1.84,0,0,1-.71.84,2.13,2.13,0,0,1-1.13.28A1.78,1.78,0,0,1,160.81,87.86Z" transform="translate(-0.94 -2.62)"/><path d="M264.55,87.83a2.2,2.2,0,0,1-.89-.9,3.07,3.07,0,0,1-.31-1.42v-1a3,3,0,0,1,.31-1.4,2.18,2.18,0,0,1,.89-.89,3.06,3.06,0,0,1,1.41-.3,3.19,3.19,0,0,1,.89.11,2.84,2.84,0,0,1,.75.33,2.1,2.1,0,0,1,.55.52l-.86.77a1.82,1.82,0,0,0-.59-.45,1.8,1.8,0,0,0-.72-.16,1.4,1.4,0,0,0-1.06.39,1.46,1.46,0,0,0-.38,1.08v1a1.54,1.54,0,0,0,.37,1.11A1.42,1.42,0,0,0,266,87a1.65,1.65,0,0,0,.72-.17,1.71,1.71,0,0,0,.59-.48l.86.83a2.11,2.11,0,0,1-.56.51,2.54,2.54,0,0,1-.75.32,3.12,3.12,0,0,1-.88.11A3.06,3.06,0,0,1,264.55,87.83Z" transform="translate(-0.94 -2.62)"/><path d="M151.93,36.83h3.9V38h-3.9Zm0,1.89h3.9v1.13h-3.9Z" transform="translate(-0.94 -2.62)"/></svg>